<?xml version="1.0" encoding="UTF-8"?>
<!DOCTYPE svg PUBLIC "-//W3C//DTD SVG 1.1//EN" "http://www.w3.org/Graphics/SVG/1.1/DTD/svg11.dtd">
<!-- Creator: CorelDRAW 2018 (64-Bit) -->
<svg xmlns="http://www.w3.org/2000/svg" xml:space="preserve" width="12.4824mm" height="12.483mm" version="1.1" style="shape-rendering:geometricPrecision; text-rendering:geometricPrecision; image-rendering:optimizeQuality; fill-rule:evenodd; clip-rule:evenodd"
viewBox="0 0 27.1 27.1"
 xmlns:xlink="http://www.w3.org/1999/xlink">
 <defs>
  <style type="text/css">
   <![CDATA[
    .fil0 {fill:#2B2A29}
   ]]>
  </style>
 </defs>
 <g id="Слой_x0020_1">
  <metadata id="CorelCorpID_0Corel-Layer"/>
  <path class="fil0" d="M26.57 21.55l-3 -2 -2.67 -1.78c-0.52,-0.34 -1.21,-0.23 -1.59,0.26l-1.65 2.12c-0.35,0.46 -0.99,0.59 -1.5,0.31 -1.12,-0.62 -2.45,-1.21 -5.37,-4.14 -2.93,-2.93 -3.52,-4.25 -4.14,-5.37 -0.28,-0.51 -0.15,-1.15 0.31,-1.5l2.12 -1.65c0.49,-0.38 0.6,-1.07 0.26,-1.59l-1.73 -2.59 -2.06 -3.09c-0.35,-0.53 -1.05,-0.68 -1.59,-0.36l-2.37 1.42c-0.64,0.38 -1.11,0.99 -1.32,1.7 -0.65,2.37 -0.78,7.59 7.58,15.95 8.36,8.36 13.58,8.23 15.95,7.58 0.72,-0.2 1.33,-0.67 1.7,-1.32l1.42 -2.37c0.32,-0.54 0.17,-1.24 -0.36,-1.59l0 0z"/>
 </g>
</svg>
