<svg width="18" height="18" viewBox="0 0 18 18" fill="none" xmlns="http://www.w3.org/2000/svg">
<g clip-path="url(#clip0)">
<path d="M0.375733 3.34533C2.84616 5.43751 7.181 9.1183 8.45506 10.266C8.6261 10.4209 8.80954 10.4996 8.99998 10.4996C9.19004 10.4996 9.37317 10.4216 9.54382 10.2675C10.819 9.11865 15.1538 5.43751 17.6243 3.34533C17.7781 3.21532 17.8015 2.9868 17.677 2.82786C17.3891 2.46059 16.96 2.25 16.5 2.25H1.49999C1.04005 2.25 0.610823 2.46059 0.322999 2.8279C0.198475 2.9868 0.221924 3.21532 0.375733 3.34533Z" fill="#4F4788"/>
<path d="M17.7825 4.47905C17.6496 4.41718 17.4932 4.43876 17.3826 4.53326C15.7647 5.90471 13.633 7.71673 12.0253 9.09953C11.9407 9.17206 11.8931 9.27862 11.8949 9.39031C11.8968 9.50165 11.9484 9.60673 12.0356 9.67631C13.5294 10.8727 15.7805 12.5185 17.406 13.6882C17.4709 13.735 17.5478 13.7588 17.625 13.7588C17.6836 13.7588 17.7422 13.7453 17.7961 13.7174C17.9213 13.6534 18 13.5244 18 13.3838V4.81926C18 4.67315 17.915 4.54022 17.7825 4.47905Z" fill="#4F4788"/>
<path d="M0.594 13.6881C2.21998 12.5185 4.47145 10.8727 5.96486 9.67629C6.05201 9.60671 6.10365 9.5016 6.10548 9.39029C6.10731 9.2786 6.05971 9.17204 5.97512 9.09951C4.36743 7.71671 2.23534 5.90469 0.617449 4.53325C0.506109 4.43875 0.349383 4.4179 0.217547 4.47903C0.0849727 4.54021 0 4.67313 0 4.81924V13.3838C0 13.5245 0.07875 13.6534 0.203977 13.7175C0.257801 13.7453 0.316406 13.7588 0.375012 13.7588C0.452285 13.7588 0.529172 13.735 0.594 13.6881Z" fill="#4F4788"/>
<path d="M17.5405 14.7085C15.9705 13.5854 13.0785 11.4914 11.3522 10.0902C11.2116 9.97561 11.008 9.97927 10.8696 10.0987C10.5308 10.3942 10.2474 10.6432 10.0463 10.8241C9.42886 11.3815 8.57192 11.3815 7.95303 10.8234C7.75271 10.6428 7.46928 10.3931 7.13052 10.0986C6.9932 9.97849 6.78922 9.97484 6.64821 10.0902C4.92773 11.4866 2.03247 13.5831 0.459966 14.7085C0.372427 14.7715 0.316037 14.8685 0.305068 14.9758C0.294451 15.0831 0.329959 15.1897 0.403576 15.2688C0.687427 15.5746 1.08733 15.75 1.50006 15.75H16.5001C16.9128 15.75 17.3123 15.5746 17.5969 15.2688C17.6701 15.1901 17.706 15.0835 17.6954 14.9762C17.6844 14.8689 17.628 14.7715 17.5405 14.7085Z" fill="#4F4788"/>
</g>
<defs>
<clipPath id="clip0">
<rect width="18" height="18" fill="white"/>
</clipPath>
</defs>
</svg>
