<svg width="18" height="18" viewBox="0 0 18 18" fill="none" xmlns="http://www.w3.org/2000/svg">
<path d="M17.6505 14.3129L15.655 12.9825L13.881 11.8001C13.5387 11.5723 13.0786 11.647 12.8259 11.9714L11.7282 13.3825C11.4924 13.6887 11.0683 13.7767 10.7301 13.5895C9.98533 13.1752 9.10457 12.7851 7.16122 10.8393C5.21788 8.89341 4.82529 8.01515 4.41098 7.27034C4.22378 6.93221 4.31177 6.50805 4.61798 6.2723L6.0291 5.17462C6.35348 4.92192 6.42819 4.46184 6.20041 4.11946L5.05433 2.40016L3.68758 0.350012C3.45495 0.0010554 2.98928 -0.103709 2.62964 0.111972L1.05339 1.05759C0.627405 1.30857 0.314272 1.71385 0.178852 2.1894C-0.252194 3.76097 -0.339099 7.2278 5.21693 12.7838C10.773 18.3399 14.2395 18.2527 15.811 17.8216C16.2866 17.6862 16.6919 17.3731 16.9428 16.9471L17.8885 15.3708C18.1042 15.0112 17.9994 14.5455 17.6505 14.3129Z" fill="#4F4788"/>
</svg>
