<svg width="212" height="212" viewBox="0 0 212 212" fill="none" xmlns="http://www.w3.org/2000/svg">
<path d="M106 212C164.542 212 212 164.542 212 106C212 47.4578 164.542 0 106 0C47.4578 0 0 47.4578 0 106C0 164.542 47.4578 212 106 212Z" fill="#039BE5"/>
<path d="M48.5038 103.703L150.705 64.2978C155.449 62.5842 159.592 65.455 158.055 72.6277L158.064 72.6188L140.662 154.601C139.372 160.413 135.918 161.827 131.087 159.088L104.587 139.558L91.8048 151.872C90.3915 153.285 89.199 154.477 86.4607 154.477L88.3422 127.509L137.455 83.1393C139.593 81.2578 136.978 80.1978 134.161 82.0705L73.4668 120.283L47.3025 112.121C41.6227 110.319 41.499 106.442 48.5038 103.703Z" fill="white"/>
</svg>
