<?xml version="1.0" encoding="UTF-8"?>
<!DOCTYPE svg PUBLIC "-//W3C//DTD SVG 1.1//EN" "http://www.w3.org/Graphics/SVG/1.1/DTD/svg11.dtd">
<!-- Creator: CorelDRAW 2018 (64-Bit) -->
<svg xmlns="http://www.w3.org/2000/svg" xml:space="preserve" width="14.077mm" height="1.7188mm" version="1.1" style="shape-rendering:geometricPrecision; text-rendering:geometricPrecision; image-rendering:optimizeQuality; fill-rule:evenodd; clip-rule:evenodd"
viewBox="0 0 148.28 18.1"
 xmlns:xlink="http://www.w3.org/1999/xlink">
 <defs>
  <style type="text/css">
   <![CDATA[
    .fil0 {fill:#F27200;fill-rule:nonzero}
   ]]>
  </style>
 </defs>
 <g id="Слой_x0020_1">
  <metadata id="CorelCorpID_0Corel-Layer"/>
  <path class="fil0" d="M-0 0.67c6.54,-0.05 10.8,3.58 14.74,6.94 2.54,2.16 4.9,4.18 7.13,4.2 2.35,0.02 4.77,-2.2 7.3,-4.51 3.58,-3.29 7.32,-6.71 12.88,-6.85l0.26 0c6.29,0.37 10.46,3.8 14.29,6.96 2.62,2.16 5.04,4.15 7.39,4.18 2.35,0.02 4.77,-2.2 7.3,-4.51 3.58,-3.29 7.32,-6.71 12.88,-6.85l0.26 0c6.29,0.38 10.46,3.81 14.29,6.97 2.62,2.16 5.04,4.15 7.39,4.18 2.35,0.02 4.77,-2.2 7.3,-4.51 3.58,-3.29 7.32,-6.71 12.88,-6.85l0.26 0c6.25,0.37 10.4,3.82 14.22,6.99 2.63,2.18 5.05,4.2 7.37,4.15l0.12 6.29c-4.66,0.09 -7.95,-2.64 -11.52,-5.61 -3.02,-2.51 -6.31,-5.24 -10.47,-5.53 -3.14,0.17 -5.94,2.73 -8.62,5.19 -3.46,3.17 -6.78,6.22 -11.59,6.17 -4.58,-0.05 -7.82,-2.72 -11.34,-5.61 -3.05,-2.51 -6.36,-5.24 -10.57,-5.53 -3.14,0.17 -5.94,2.73 -8.62,5.19 -3.46,3.17 -6.78,6.22 -11.59,6.17 -4.58,-0.05 -7.82,-2.72 -11.34,-5.61 -3.05,-2.51 -6.36,-5.24 -10.57,-5.53 -3.14,0.17 -5.94,2.73 -8.62,5.19 -3.46,3.17 -6.78,6.22 -11.59,6.17 -4.54,-0.05 -7.74,-2.78 -11.18,-5.71 -3.08,-2.63 -6.41,-5.47 -10.62,-5.44l-0.02 -6.29z"/>
 </g>
</svg>
