<?xml version="1.0" encoding="UTF-8"?>
<!DOCTYPE svg PUBLIC "-//W3C//DTD SVG 1.1//EN" "http://www.w3.org/Graphics/SVG/1.1/DTD/svg11.dtd">
<!-- Creator: CorelDRAW 2018 (64-Bit) -->
<svg xmlns="http://www.w3.org/2000/svg" xml:space="preserve" width="12.4829mm" height="12.4829mm" version="1.1" style="shape-rendering:geometricPrecision; text-rendering:geometricPrecision; image-rendering:optimizeQuality; fill-rule:evenodd; clip-rule:evenodd"
viewBox="0 0 207.66 207.66"
 xmlns:xlink="http://www.w3.org/1999/xlink">
 <defs>
  <style type="text/css">
   <![CDATA[
    .fil0 {fill:#FEFEFE}
   ]]>
  </style>
 </defs>
 <g id="Слой_x0020_1">
  <metadata id="CorelCorpID_0Corel-Layer"/>
  <path class="fil0" d="M203.62 165.12l-23.02 -15.35 -20.47 -13.64c-3.95,-2.63 -9.26,-1.77 -12.17,1.97l-12.67 16.28c-2.72,3.54 -7.61,4.55 -11.51,2.39 -8.59,-4.78 -18.76,-9.28 -41.18,-31.73 -22.42,-22.45 -26.95,-32.58 -31.73,-41.17 -2.16,-3.9 -1.14,-8.79 2.39,-11.52l16.28 -12.66c3.75,-2.92 4.6,-8.22 1.98,-12.17l-13.23 -19.84 -15.77 -23.65c-2.68,-4.03 -8.05,-5.24 -12.21,-2.75l-18.18 10.91c-4.91,2.9 -8.53,7.57 -10.09,13.06 -4.97,18.13 -5.98,58.13 58.12,122.22 64.1,64.1 104.09,63.09 122.22,58.12 5.48,-1.56 10.16,-5.17 13.05,-10.08l10.91 -18.19c2.49,-4.15 1.28,-9.52 -2.74,-12.2z"/>
 </g>
</svg>
