<?xml version="1.0" encoding="UTF-8"?>
<!DOCTYPE svg PUBLIC "-//W3C//DTD SVG 1.1//EN" "http://www.w3.org/Graphics/SVG/1.1/DTD/svg11.dtd">
<!-- Creator: CorelDRAW 2018 (64-Bit) -->
<svg xmlns="http://www.w3.org/2000/svg" xml:space="preserve" width="4.7625mm" height="4.7529mm" version="1.1" style="shape-rendering:geometricPrecision; text-rendering:geometricPrecision; image-rendering:optimizeQuality; fill-rule:evenodd; clip-rule:evenodd"
viewBox="0 0 8.47 8.45"
 xmlns:xlink="http://www.w3.org/1999/xlink">
 <defs>
  <style type="text/css">
   <![CDATA[
    .fil0 {fill:#FEFEFE}
   ]]>
  </style>
 </defs>
 <g id="Слой_x0020_1">
  <metadata id="CorelCorpID_0Corel-Layer"/>
  <path class="fil0" d="M4.39 8.45c0.65,-0.09 1.22,-0.77 1.57,-1.77 -0.52,-0.12 -1.04,-0.18 -1.57,-0.19l0 1.95z"/>
  <path class="fil0" d="M5.42 8.29c0.04,-0.01 0.08,-0.02 0.11,-0.03 0.03,-0.01 0.06,-0.02 0.09,-0.03 0.04,-0.01 0.07,-0.03 0.11,-0.04 0.03,-0.01 0.06,-0.02 0.09,-0.04 0.04,-0.02 0.07,-0.03 0.11,-0.05 0.03,-0.01 0.06,-0.03 0.09,-0.04 0.04,-0.02 0.07,-0.03 0.1,-0.05 0.03,-0.02 0.06,-0.03 0.09,-0.05 0.03,-0.02 0.07,-0.04 0.1,-0.06 0.03,-0.02 0.06,-0.03 0.09,-0.05 0.03,-0.02 0.07,-0.04 0.1,-0.06 0.03,-0.02 0.06,-0.04 0.09,-0.06 0.03,-0.02 0.06,-0.04 0.09,-0.07 0.03,-0.02 0.06,-0.04 0.08,-0.06 0.03,-0.02 0.06,-0.05 0.09,-0.07 0.03,-0.02 0.05,-0.04 0.08,-0.07 0.03,-0.03 0.06,-0.05 0.09,-0.08 0.03,-0.02 0.05,-0.05 0.08,-0.07 0.03,-0.03 0.06,-0.05 0.09,-0.08 0.02,-0.02 0.05,-0.05 0.07,-0.07 0,-0 0.01,-0.01 0.01,-0.01 -0.33,-0.17 -0.68,-0.3 -1.04,-0.4 -0.19,0.6 -0.52,1.14 -0.97,1.57 0.01,-0 0.02,-0.01 0.04,-0.01 0.03,-0.01 0.06,-0.02 0.1,-0.03z"/>
  <path class="fil0" d="M8.47 4.38l-1.81 0c-0.01,0.71 -0.11,1.41 -0.31,2.09 0.4,0.11 0.79,0.26 1.15,0.46 0.6,-0.72 0.94,-1.62 0.97,-2.55z"/>
  <path class="fil0" d="M4.39 4.07l1.97 0c-0.01,-0.68 -0.11,-1.36 -0.3,-2.02 -0.55,0.12 -1.11,0.19 -1.67,0.2l0 1.82z"/>
  <path class="fil0" d="M4.39 0l0 1.95c0.53,-0.01 1.06,-0.07 1.57,-0.19 -0.36,-1 -0.92,-1.67 -1.57,-1.77z"/>
  <path class="fil0" d="M4.39 6.2c0.56,0.01 1.12,0.07 1.67,0.2 0.19,-0.66 0.29,-1.34 0.3,-2.02l-1.97 0 0 1.82z"/>
  <path class="fil0" d="M7.5 1.52c-0.36,0.2 -0.75,0.35 -1.15,0.46 0.2,0.68 0.3,1.39 0.31,2.09l1.81 0c-0.03,-0.93 -0.37,-1.83 -0.97,-2.55z"/>
  <path class="fil0" d="M7.29 1.29c-0,-0 -0.01,-0.01 -0.01,-0.01 -0.02,-0.02 -0.05,-0.05 -0.07,-0.07 -0.03,-0.03 -0.06,-0.06 -0.08,-0.08 -0.03,-0.02 -0.05,-0.05 -0.08,-0.07 -0.03,-0.03 -0.06,-0.05 -0.09,-0.08 -0.03,-0.02 -0.05,-0.04 -0.08,-0.06 -0.03,-0.02 -0.06,-0.05 -0.09,-0.07 -0.03,-0.02 -0.05,-0.04 -0.08,-0.06 -0.03,-0.02 -0.06,-0.05 -0.1,-0.07 -0.03,-0.02 -0.06,-0.04 -0.09,-0.06 -0.03,-0.02 -0.07,-0.04 -0.1,-0.06 -0.03,-0.02 -0.06,-0.03 -0.09,-0.05 -0.03,-0.02 -0.07,-0.04 -0.1,-0.06 -0.03,-0.02 -0.06,-0.03 -0.09,-0.05 -0.03,-0.02 -0.07,-0.03 -0.11,-0.05 -0.03,-0.01 -0.06,-0.03 -0.09,-0.04 -0.04,-0.02 -0.07,-0.03 -0.11,-0.05 -0.03,-0.01 -0.06,-0.03 -0.09,-0.04 -0.04,-0.01 -0.07,-0.03 -0.11,-0.04 -0.03,-0.01 -0.06,-0.02 -0.09,-0.03 -0.04,-0.01 -0.08,-0.02 -0.11,-0.03 -0.03,-0.01 -0.06,-0.02 -0.09,-0.03 -0.01,-0 -0.02,-0.01 -0.04,-0.01 0.45,0.44 0.78,0.97 0.97,1.57 0.36,-0.09 0.71,-0.23 1.04,-0.4z"/>
  <path class="fil0" d="M-0 4.07l1.81 0c0.01,-0.71 0.11,-1.41 0.31,-2.09 -0.4,-0.11 -0.78,-0.26 -1.15,-0.46 -0.6,0.72 -0.94,1.62 -0.97,2.55z"/>
  <path class="fil0" d="M4.08 8.45l0 -1.95c-0.53,0.01 -1.06,0.07 -1.57,0.19 0.36,1 0.92,1.67 1.57,1.77z"/>
  <path class="fil0" d="M4.08 4.38l-1.97 0c0.01,0.68 0.11,1.36 0.3,2.02 0.55,-0.13 1.11,-0.19 1.67,-0.2l0 -1.82z"/>
  <path class="fil0" d="M4.08 0c-0.65,0.09 -1.22,0.77 -1.57,1.77 0.52,0.12 1.04,0.18 1.57,0.19l0 -1.95z"/>
  <path class="fil0" d="M4.08 2.25c-0.56,-0.01 -1.12,-0.07 -1.67,-0.2 -0.19,0.66 -0.29,1.34 -0.3,2.02l1.97 0 0 -1.82z"/>
  <path class="fil0" d="M3.18 0.12c-0.01,0 -0.02,0.01 -0.04,0.01 -0.03,0.01 -0.06,0.02 -0.1,0.03 -0.04,0.01 -0.08,0.02 -0.11,0.03 -0.03,0.01 -0.06,0.02 -0.1,0.03 -0.04,0.01 -0.07,0.03 -0.11,0.04 -0.03,0.01 -0.06,0.02 -0.09,0.04 -0.04,0.02 -0.07,0.03 -0.11,0.05 -0.03,0.01 -0.06,0.03 -0.09,0.04 -0.03,0.02 -0.07,0.03 -0.1,0.05 -0.03,0.02 -0.06,0.03 -0.09,0.05 -0.03,0.02 -0.07,0.04 -0.1,0.06 -0.03,0.02 -0.06,0.03 -0.09,0.05 -0.03,0.02 -0.07,0.04 -0.1,0.06 -0.03,0.02 -0.06,0.04 -0.09,0.06 -0.03,0.02 -0.06,0.04 -0.09,0.07 -0.03,0.02 -0.06,0.04 -0.08,0.06 -0.03,0.02 -0.06,0.05 -0.09,0.07 -0.03,0.02 -0.05,0.04 -0.08,0.07 -0.03,0.03 -0.06,0.05 -0.09,0.08 -0.03,0.02 -0.05,0.05 -0.08,0.07 -0.03,0.03 -0.06,0.05 -0.08,0.08 -0.02,0.02 -0.05,0.05 -0.07,0.07 -0,0 -0.01,0.01 -0.01,0.01 0.33,0.17 0.68,0.3 1.04,0.4 0.19,-0.6 0.52,-1.13 0.97,-1.57z"/>
  <path class="fil0" d="M1.26 7.24c0.03,0.03 0.06,0.06 0.08,0.08 0.03,0.02 0.05,0.05 0.08,0.07 0.03,0.03 0.06,0.05 0.09,0.08 0.03,0.02 0.05,0.04 0.08,0.06 0.03,0.02 0.06,0.05 0.09,0.07 0.03,0.02 0.05,0.04 0.08,0.06 0.03,0.02 0.06,0.05 0.1,0.07 0.03,0.02 0.06,0.04 0.09,0.06 0.03,0.02 0.07,0.04 0.1,0.06 0.03,0.02 0.06,0.03 0.09,0.05 0.03,0.02 0.07,0.04 0.1,0.06 0.03,0.02 0.06,0.03 0.09,0.05 0.03,0.02 0.07,0.03 0.11,0.05 0.03,0.01 0.06,0.03 0.09,0.04 0.04,0.02 0.07,0.03 0.11,0.05 0.03,0.01 0.06,0.03 0.09,0.04 0.04,0.01 0.07,0.03 0.11,0.04 0.03,0.01 0.06,0.02 0.09,0.03 0.04,0.01 0.08,0.02 0.11,0.03 0.03,0.01 0.06,0.02 0.09,0.03 0.01,0 0.02,0.01 0.04,0.01 -0.45,-0.44 -0.78,-0.97 -0.97,-1.57 -0.36,0.09 -0.71,0.23 -1.04,0.4 0,0 0.01,0.01 0.01,0.01 0.02,0.02 0.05,0.05 0.07,0.07z"/>
  <path class="fil0" d="M0.97 6.93c0.36,-0.2 0.75,-0.35 1.15,-0.46 -0.2,-0.68 -0.3,-1.39 -0.31,-2.09l-1.81 0c0.03,0.93 0.37,1.83 0.97,2.55z"/>
 </g>
</svg>
