<svg width="18" height="18" viewBox="0 0 18 18" fill="none" xmlns="http://www.w3.org/2000/svg">
<g clip-path="url(#clip0)">
<path d="M9.3219 17.9894C10.6983 17.7939 11.905 16.3572 12.6643 14.2356C11.5667 13.9898 10.4466 13.8578 9.3219 13.8421V17.9894Z" fill="#4F4788"/>
<path d="M11.5206 17.6518C11.6019 17.6283 11.683 17.6046 11.7634 17.5785C11.8313 17.5567 11.8982 17.5331 11.9651 17.5097C12.0443 17.4824 12.1231 17.4542 12.2016 17.4244C12.2686 17.399 12.3348 17.3719 12.4013 17.3449C12.4779 17.3127 12.5544 17.2807 12.6301 17.2485C12.6963 17.2194 12.7619 17.1889 12.8276 17.1583C12.9019 17.1233 12.9759 17.0876 13.0492 17.0506C13.1136 17.0177 13.1779 16.9843 13.2423 16.9499C13.3144 16.9112 13.386 16.8718 13.4571 16.8313C13.5215 16.7948 13.5836 16.7582 13.6463 16.7205C13.716 16.6777 13.7854 16.6348 13.8544 16.5919C13.9161 16.5526 13.9777 16.5127 14.0385 16.4716C14.1063 16.4259 14.1733 16.3783 14.2399 16.3307C14.2997 16.2878 14.3592 16.2451 14.4177 16.202C14.4821 16.1524 14.548 16.101 14.6126 16.0495C14.6699 16.0038 14.7271 15.9584 14.7835 15.9114C14.8477 15.858 14.9093 15.8027 14.9717 15.7475C15.0263 15.6989 15.0813 15.6508 15.1347 15.6011C15.1961 15.5437 15.256 15.4843 15.3158 15.4254C15.3677 15.3742 15.4201 15.3238 15.4708 15.2714C15.4803 15.2616 15.4892 15.2511 15.499 15.241C14.7973 14.8787 14.0583 14.5942 13.2947 14.3928C12.8976 15.6592 12.191 16.8068 11.2388 17.7313C11.2648 17.7246 11.2909 17.7191 11.317 17.7123C11.3858 17.693 11.4533 17.6718 11.5206 17.6518Z" fill="#4F4788"/>
<path d="M17.9998 9.32904H14.1427C14.1281 10.8351 13.9096 12.3322 13.4932 13.7796C14.3423 14.0065 15.1618 14.3326 15.9346 14.7512C17.2035 13.2219 17.9298 11.3151 17.9998 9.32904Z" fill="#4F4788"/>
<path d="M9.3219 8.68569H13.4996C13.4833 7.23289 13.2701 5.78905 12.8663 4.39343C11.703 4.65873 10.5149 4.80042 9.3219 4.81612V8.68569Z" fill="#4F4788"/>
<path d="M9.3219 0.0255127V4.17281C10.4466 4.15694 11.5667 4.02515 12.6643 3.77933C11.905 1.6577 10.6983 0.221073 9.3219 0.0255127Z" fill="#4F4788"/>
<path d="M9.3219 13.1987C10.5149 13.2145 11.703 13.3562 12.8663 13.6215C13.2701 12.2259 13.4833 10.7819 13.4996 9.32904H9.3219V13.1987Z" fill="#4F4788"/>
<path d="M15.9346 3.26349C15.1618 3.6821 14.3423 4.00819 13.4932 4.23501C13.9096 5.68247 14.1281 7.17957 14.1427 8.68562H17.9998C17.9296 6.6997 17.2033 4.79294 15.9346 3.26349Z" fill="#4F4788"/>
<path d="M15.5001 2.77558C15.4907 2.766 15.4817 2.75563 15.4725 2.74573C15.4216 2.69327 15.3688 2.64269 15.3169 2.59164C15.2573 2.53274 15.1977 2.47321 15.1361 2.41603C15.0829 2.36639 15.0278 2.31943 14.9731 2.26995C14.9107 2.21466 14.8484 2.1589 14.7843 2.10549C14.7287 2.05852 14.6717 2.0136 14.6151 1.96852C14.5507 1.91637 14.4847 1.86453 14.4185 1.81474C14.3603 1.77092 14.3014 1.72851 14.2422 1.6861C14.175 1.63772 14.1074 1.58949 14.039 1.54347C13.9788 1.50294 13.9177 1.46336 13.8566 1.42456C13.787 1.3798 13.7176 1.33597 13.6467 1.29356C13.5847 1.25633 13.522 1.21958 13.4592 1.18392C13.3872 1.14277 13.3151 1.10287 13.2424 1.06392C13.178 1.03171 13.1138 0.996686 13.0494 0.964486C12.9754 0.927101 12.9008 0.891131 12.8243 0.855789C12.7599 0.825159 12.6945 0.795314 12.6282 0.766255C12.5521 0.732484 12.4751 0.702011 12.3983 0.66981C12.332 0.642793 12.266 0.61609 12.1991 0.590643C12.121 0.560799 12.0419 0.532839 11.9627 0.505508C11.8958 0.481946 11.8289 0.458542 11.761 0.436551C11.6806 0.410476 11.6002 0.386758 11.5175 0.362882C11.4506 0.343248 11.3834 0.323299 11.3157 0.305392C11.2898 0.298324 11.2634 0.292826 11.2373 0.286072C12.1895 1.21062 12.8961 2.35807 13.2933 3.62458C14.0576 3.42321 14.7978 3.13858 15.5001 2.77558Z" fill="#4F4788"/>
<path d="M0 8.68562H3.85717C3.87178 7.17957 4.09027 5.68247 4.50653 4.23501C3.65753 4.00835 2.83806 3.68225 2.06524 3.26349C0.796378 4.79279 0.0700562 6.6997 0 8.68562Z" fill="#4F4788"/>
<path d="M8.67849 17.9894V13.8421C7.55382 13.858 6.43371 13.9898 5.33606 14.2356C6.09521 16.3572 7.30203 17.7939 8.67849 17.9894Z" fill="#4F4788"/>
<path d="M8.67815 9.32904H4.50037C4.5167 10.7819 4.7297 12.2259 5.1337 13.6215C6.29702 13.356 7.48499 13.2144 8.67815 13.1987V9.32904Z" fill="#4F4788"/>
<path d="M8.67849 0.0255127C7.30203 0.221073 6.09521 1.6577 5.33606 3.77933C6.43371 4.02531 7.55382 4.1571 8.67849 4.17281V0.0255127Z" fill="#4F4788"/>
<path d="M8.67815 4.81612C7.48515 4.80042 6.29702 4.65873 5.1337 4.39343C4.7297 5.78905 4.5167 7.23289 4.50037 8.68569H8.67815V4.81612Z" fill="#4F4788"/>
<path d="M6.76004 0.285828C6.73396 0.292582 6.70789 0.29808 6.68181 0.304834C6.61364 0.323055 6.54641 0.343318 6.47856 0.362952C6.39782 0.386514 6.31771 0.410232 6.23666 0.435993C6.16833 0.458141 6.1011 0.481702 6.03387 0.505107C5.95517 0.532909 5.87632 0.560554 5.79841 0.590085C5.73118 0.615845 5.6649 0.642548 5.59829 0.66988C5.5218 0.70208 5.44514 0.734281 5.36959 0.766325C5.3033 0.795384 5.2378 0.825857 5.17214 0.856487C5.09785 0.891515 5.02386 0.927171 4.95051 0.964241C4.88611 0.99707 4.82171 1.03068 4.75746 1.06493C4.68536 1.10357 4.61389 1.14315 4.54289 1.18368C4.47849 1.21965 4.41519 1.25656 4.35314 1.29426C4.28324 1.33636 4.21413 1.37987 4.14533 1.4229C4.08344 1.46249 4.02203 1.50239 3.96124 1.54354C3.89338 1.58925 3.82646 1.63684 3.75986 1.68444C3.70002 1.72732 3.64048 1.77004 3.58189 1.81324C3.51608 1.86272 3.45325 1.91424 3.38696 1.9656C3.32979 2.01131 3.27214 2.05671 3.21622 2.10399C3.15182 2.15708 3.09071 2.21206 3.02867 2.26703C2.97369 2.31604 2.91824 2.36364 2.86452 2.41437C2.80342 2.47139 2.74389 2.53061 2.6842 2.58935C2.63236 2.64056 2.57959 2.69114 2.52869 2.74376C2.51942 2.7535 2.51047 2.76418 2.50073 2.77408C3.20224 3.13661 3.94144 3.42107 4.705 3.62245C5.10209 2.35672 5.80831 1.20991 6.76004 0.285828Z" fill="#4F4788"/>
<path d="M2.68292 15.4232C2.74277 15.4821 2.8023 15.5416 2.86372 15.599C2.91712 15.6484 2.9721 15.6954 3.02692 15.7449C3.08928 15.8003 3.15164 15.8559 3.21573 15.9094C3.27133 15.956 3.32804 16.0011 3.3849 16.0463C3.4493 16.0985 3.51354 16.1503 3.58171 16.2004C3.63968 16.2439 3.69858 16.286 3.75748 16.3292C3.82471 16.3774 3.89257 16.4257 3.96105 16.472C4.02121 16.5125 4.08232 16.5521 4.14342 16.5911C4.21301 16.6357 4.28243 16.6795 4.35327 16.7219C4.41532 16.7593 4.47799 16.7959 4.54082 16.8317C4.61277 16.8729 4.68486 16.9128 4.75759 16.9516C4.82183 16.9838 4.88624 17.0188 4.95064 17.051C5.02462 17.0884 5.09923 17.1244 5.17573 17.1599C5.24013 17.1902 5.30547 17.22 5.37176 17.2492C5.44794 17.283 5.52475 17.3135 5.60172 17.3457C5.66801 17.3727 5.73398 17.3994 5.80089 17.4249C5.87896 17.4549 5.95813 17.4828 6.03729 17.5101C6.10421 17.5335 6.17112 17.5571 6.23898 17.5789C6.3194 17.605 6.39983 17.6289 6.48245 17.6526C6.54936 17.6722 6.61659 17.6922 6.68413 17.7103C6.71021 17.7173 6.7366 17.7228 6.76267 17.7296C5.81047 16.8049 5.10394 15.6574 4.7067 14.3909C3.94315 14.5924 3.20395 14.8769 2.50244 15.2396C2.51187 15.2491 2.52082 15.2595 2.53024 15.2694C2.57847 15.3216 2.63046 15.3721 2.68292 15.4232Z" fill="#4F4788"/>
<path d="M2.06524 14.7512C2.83806 14.3326 3.65753 14.0065 4.50653 13.7796C4.09027 12.3322 3.87178 10.8351 3.85717 9.32904H0C0.0702132 11.315 0.796378 13.2217 2.06524 14.7512Z" fill="#4F4788"/>
</g>
<defs>
<clipPath id="clip0">
<rect width="18" height="18" fill="white"/>
</clipPath>
</defs>
</svg>
